<?xml version="1.0" encoding="UTF-8"?>
<svg xmlns="http://www.w3.org/2000/svg" width="1200" height="630" viewBox="0 0 1200 630">
  <defs>
    <linearGradient id="g" x1="0" y1="0" x2="1" y2="1">
      <stop offset="0%" stop-color="#a5b4fc"/>
      <stop offset="100%" stop-color="#fbcfe8"/>
    </linearGradient>
    <filter id="shadow" x="-20%" y="-20%" width="140%" height="140%">
      <feDropShadow dx="0" dy="12" stdDeviation="12" flood-color="rgba(0,0,0,0.25)"/>
    </filter>
  </defs>
  <rect width="1200" height="630" fill="url(#g)"/>

  <!-- Card -->
  <g filter="url(#shadow)">
    <rect x="80" y="80" rx="24" ry="24" width="1040" height="470" fill="#ffffff" opacity="0.92"/>
  </g>

  <!-- Logo circle -->
  <circle cx="170" cy="180" r="36" fill="#4f46e5"/>
  <text x="170" y="190" text-anchor="middle" font-family="Inter,ui-sans-serif,system-ui" font-weight="800" font-size="30" fill="#ffffff">Л</text>

  <!-- Title -->
  <text x="230" y="188" font-family="Inter,ui-sans-serif,system-ui" font-size="44" font-weight="800" fill="#0f172a">Logoped</text>
  <text x="230" y="230" font-family="Inter,ui-sans-serif,system-ui" font-size="24" font-weight="600" fill="#334155">Платформа для логопедов, родителей и организаций</text>

  <!-- Bullets -->
  <g font-family="Inter,ui-sans-serif,system-ui" font-size="22" fill="#475569">
    <text x="120" y="300">• Компактное расписание с оценками</text>
    <text x="120" y="340">• Записи, оплаты и абонементы</text>
    <text x="120" y="380">• Орг. аналитика и выплаты</text>
  </g>

  <!-- CTA pill -->
  <rect x="120" y="420" rx="12" ry="12" width="260" height="56" fill="#4f46e5"/>
  <text x="250" y="456" text-anchor="middle" font-family="Inter,ui-sans-serif,system-ui" font-size="22" font-weight="700" fill="#ffffff">Начать бесплатно</text>

  <!-- Right abstract phone mockup -->
  <g transform="translate(820,160)">
    <rect x="0" y="0" width="240" height="420" rx="28" ry="28" fill="#ffffff" stroke="#e5e7eb"/>
    <rect x="20" y="60" width="200" height="28" rx="8" fill="#e2e8f0"/>
    <rect x="20" y="100" width="200" height="140" rx="12" fill="#eef2ff"/>
    <rect x="20" y="250" width="200" height="28" rx="8" fill="#e2e8f0"/>
    <rect x="20" y="290" width="120" height="28" rx="8" fill="#c7d2fe"/>
    <rect x="20" y="330" width="160" height="28" rx="8" fill="#e2e8f0"/>
  </g>
</svg>
